<svg width="31" height="31" viewBox="0 0 31 31" fill="none" xmlns="http://www.w3.org/2000/svg">
<path d="M24.6934 6.18945C22.2383 3.72852 18.9688 2.375 15.4941 2.375C8.32227 2.375 2.48633 8.21094 2.48633 15.3828C2.48633 17.6738 3.08398 19.9121 4.2207 21.8867L2.375 28.625L9.27148 26.8145C11.1699 27.8516 13.3086 28.3965 15.4883 28.3965H15.4941C22.6602 28.3965 28.625 22.5605 28.625 15.3887C28.625 11.9141 27.1484 8.65039 24.6934 6.18945ZM15.4941 26.2051C13.5488 26.2051 11.6445 25.6836 9.98633 24.6992L9.59375 24.4648L5.50391 25.5371L6.59375 21.5469L6.33594 21.1367C5.25195 19.4141 4.68359 17.4277 4.68359 15.3828C4.68359 9.42383 9.53516 4.57227 15.5 4.57227C18.3887 4.57227 21.1016 5.69727 23.1406 7.74219C25.1797 9.78711 26.4336 12.5 26.4277 15.3887C26.4277 21.3535 21.4531 26.2051 15.4941 26.2051ZM21.4238 18.1074C21.1016 17.9434 19.502 17.1582 19.2031 17.0527C18.9043 16.9414 18.6875 16.8887 18.4707 17.2168C18.2539 17.5449 17.6328 18.2715 17.4395 18.4941C17.252 18.7109 17.0586 18.7402 16.7363 18.5762C14.8262 17.6211 13.5723 16.8711 12.3125 14.709C11.9785 14.1348 12.6465 14.1758 13.2676 12.9336C13.373 12.7168 13.3203 12.5293 13.2383 12.3652C13.1562 12.2012 12.5059 10.6016 12.2363 9.95117C11.9727 9.31836 11.7031 9.40625 11.5039 9.39453C11.3164 9.38281 11.0996 9.38281 10.8828 9.38281C10.666 9.38281 10.3145 9.46484 10.0156 9.78711C9.7168 10.1152 8.87891 10.9004 8.87891 12.5C8.87891 14.0996 10.0449 15.6465 10.2031 15.8633C10.3672 16.0801 12.4941 19.3613 15.7578 20.7734C17.8203 21.6641 18.6289 21.7402 19.6602 21.5879C20.2871 21.4941 21.582 20.8027 21.8516 20.041C22.1211 19.2793 22.1211 18.6289 22.0391 18.4941C21.9629 18.3477 21.7461 18.2656 21.4238 18.1074Z" fill="white"/>
</svg>
