<svg width="56" height="56" viewBox="0 0 56 56" fill="none" xmlns="http://www.w3.org/2000/svg">
<g clip-path="url(#clip0_18_34)">
<path d="M52.1945 16.6399V26.6165C52.1945 26.8874 51.9717 27.1087 51.699 27.1087H42.7744C42.6433 27.1087 42.5163 27.1604 42.4247 27.2534L39.8495 29.8117C39.7558 29.9047 39.7038 30.0288 39.7038 30.1591V39.0251C39.7038 39.296 39.481 39.5173 39.2083 39.5173H28.7869C28.5142 39.5173 28.2914 39.296 28.2914 39.0251V30.0309C28.2914 29.9006 28.2394 29.7744 28.1457 29.6834L25.6996 27.2534C25.6059 27.1604 25.481 27.1087 25.3499 27.1087H15.7091C15.578 27.1087 15.451 27.1604 15.3594 27.2534L12.1597 30.4321C12.066 30.5252 12.014 30.6493 12.014 30.7795V39.0251C12.014 39.296 11.7912 39.5173 11.5185 39.5173H1.09916C0.82645 39.5173 0.603699 39.296 0.603699 39.0251V29.0485C0.603699 28.7776 0.82645 28.5563 1.09916 28.5563H10.6712C10.8024 28.5563 10.9293 28.5046 11.0209 28.4116L13.7814 25.6713C13.8751 25.5783 13.9271 25.4542 13.9271 25.3239V14.9855C13.9271 14.7145 14.1499 14.4933 14.4226 14.4933H26.5677C26.8404 14.4933 27.0632 14.7145 27.0632 14.9855V25.2536C27.0632 25.3839 27.1152 25.51 27.2089 25.601L30.0401 28.4116C30.1338 28.5046 30.2587 28.5563 30.3899 28.5563H37.7365C37.8676 28.5563 37.9946 28.5046 38.0862 28.4116L40.6385 25.8781C40.7322 25.7851 40.7842 25.661 40.7842 25.5307V16.6399C40.7842 16.369 41.007 16.1477 41.2797 16.1477H51.7011C51.9738 16.1477 52.1966 16.369 52.1966 16.6399H52.1945Z" fill="#025F94"/>
<path d="M10.7815 14.7414H3.20176C2.92813 14.7414 2.7063 14.9618 2.7063 15.2336V22.4803C2.7063 22.7521 2.92813 22.9725 3.20176 22.9725H10.7815C11.0552 22.9725 11.277 22.7521 11.277 22.4803V15.2336C11.277 14.9618 11.0552 14.7414 10.7815 14.7414Z" fill="#03AFF9"/>
<path d="M22.0232 44.3152H14.4434C14.1698 44.3152 13.9479 44.5356 13.9479 44.8075V52.0541C13.9479 52.3259 14.1698 52.5463 14.4434 52.5463H22.0232C22.2968 52.5463 22.5186 52.3259 22.5186 52.0541V44.8075C22.5186 44.5356 22.2968 44.3152 22.0232 44.3152Z" fill="#03AFF9"/>
<path d="M20.1496 4.81454H12.5698C12.2962 4.81454 12.0743 5.03491 12.0743 5.30675V12.5534C12.0743 12.8252 12.2962 13.0456 12.5698 13.0456H20.1496C20.4232 13.0456 20.645 12.8252 20.645 12.5534V5.30675C20.645 5.03491 20.4232 4.81454 20.1496 4.81454Z" fill="#03AFF9"/>
<path d="M5.54171 46.3833H0.495465C0.221827 46.3833 0 46.6037 0 46.8755V51.688C0 51.9598 0.221827 52.1802 0.495465 52.1802H5.54171C5.81535 52.1802 6.03717 51.9598 6.03717 51.688V46.8755C6.03717 46.6037 5.81535 46.3833 5.54171 46.3833Z" fill="#03AFF9"/>
<path d="M21.9878 29.2181H16.9416C16.6679 29.2181 16.4461 29.4385 16.4461 29.7103V34.5228C16.4461 34.7946 16.6679 35.015 16.9416 35.015H21.9878C22.2615 35.015 22.4833 34.7946 22.4833 34.5228V29.7103C22.4833 29.4385 22.2615 29.2181 21.9878 29.2181Z" fill="#03AFF9"/>
<path d="M37.393 20.1185H32.3468C32.0731 20.1185 31.8513 20.3388 31.8513 20.6107V25.4231C31.8513 25.695 32.0731 25.9154 32.3468 25.9154H37.393C37.6667 25.9154 37.8885 25.695 37.8885 25.4231V20.6107C37.8885 20.3388 37.6667 20.1185 37.393 20.1185Z" fill="#03AFF9"/>
<path d="M7.6235 1.09195H2.57725C2.30361 1.09195 2.08179 1.31232 2.08179 1.58416V6.39662C2.08179 6.66846 2.30361 6.88883 2.57725 6.88883H7.6235C7.89713 6.88883 8.11896 6.66846 8.11896 6.39662V1.58416C8.11896 1.31232 7.89713 1.09195 7.6235 1.09195Z" fill="#03AFF9"/>
<path d="M3.6681 23.8411H0.495465C0.221827 23.8411 0 24.0614 0 24.3333V27.3465C0 27.6183 0.221827 27.8387 0.495465 27.8387H3.6681C3.94174 27.8387 4.16357 27.6183 4.16357 27.3465V24.3333C4.16357 24.0614 3.94174 23.8411 3.6681 23.8411Z" fill="#03AFF9"/>
<path d="M25.1105 37.6973H21.9378C21.6642 37.6973 21.4424 37.9177 21.4424 38.1895V41.2028C21.4424 41.4746 21.6642 41.695 21.9378 41.695H25.1105C25.3841 41.695 25.606 41.4746 25.606 41.2028V38.1895C25.606 37.9177 25.3841 37.6973 25.1105 37.6973Z" fill="#03AFF9"/>
<path d="M10.7462 42.2471H7.57353C7.29989 42.2471 7.07806 42.4675 7.07806 42.7393V45.7526C7.07806 46.0244 7.29989 46.2448 7.57353 46.2448H10.7462C11.0198 46.2448 11.2416 46.0244 11.2416 45.7526V42.7393C11.2416 42.4675 11.0198 42.2471 10.7462 42.2471Z" fill="#03AFF9"/>
<path d="M26.1514 0.264709H22.9787C22.7051 0.264709 22.4833 0.485078 22.4833 0.756917V3.77014C22.4833 4.04198 22.7051 4.26235 22.9787 4.26235H26.1514C26.425 4.26235 26.6468 4.04198 26.6468 3.77014V0.756917C26.6468 0.485078 26.425 0.264709 26.1514 0.264709Z" fill="#03AFF9"/>
<path d="M9.28889 10.3984H7.15715C6.88351 10.3984 6.66168 10.6188 6.66168 10.8906V12.9049C6.66168 13.1768 6.88351 13.3972 7.15715 13.3972H9.28889C9.56253 13.3972 9.78436 13.1768 9.78436 12.9049V10.8906C9.78436 10.6188 9.56253 10.3984 9.28889 10.3984Z" fill="#03AFF9"/>
<path d="M25.1105 9.98477H22.9787C22.7051 9.98477 22.4833 10.2051 22.4833 10.477V12.4913C22.4833 12.7631 22.7051 12.9835 22.9787 12.9835H25.1105C25.3841 12.9835 25.606 12.7631 25.606 12.4913V10.477C25.606 10.2051 25.3841 9.98477 25.1105 9.98477Z" fill="#03AFF9"/>
<path d="M34.4785 15.7755H32.3468C32.0731 15.7755 31.8513 15.9958 31.8513 16.2677V18.282C31.8513 18.5538 32.0731 18.7742 32.3468 18.7742H34.4785C34.7522 18.7742 34.974 18.5538 34.974 18.282V16.2677C34.974 15.9958 34.7522 15.7755 34.4785 15.7755Z" fill="#03AFF9"/>
<path d="M25.5269 53.0013H23.3951C23.1215 53.0013 22.8997 53.2216 22.8997 53.4935V55.5078C22.8997 55.7796 23.1215 56 23.3951 56H25.5269C25.8005 56 26.0223 55.7796 26.0223 55.5078V53.4935C26.0223 53.2216 25.8005 53.0013 25.5269 53.0013Z" fill="#03AFF9"/>
<path d="M5.12538 7.50305H2.99363C2.72 7.50305 2.49817 7.72342 2.49817 7.99526V10.0096C2.49817 10.2814 2.72 10.5018 2.99363 10.5018H5.12538C5.39902 10.5018 5.62085 10.2814 5.62085 10.0096V7.99526C5.62085 7.72342 5.39902 7.50305 5.12538 7.50305Z" fill="#03AFF9"/>
<path d="M52.1092 14.7001H40.2576C39.9848 14.7001 39.7621 14.9213 39.7621 15.1923C36.7393 11.906 32.557 9.87311 27.9355 9.87311C27.8522 9.87311 27.7689 9.87311 27.6877 9.87724V0.577C27.6877 0.322624 27.8813 0.107541 28.1353 0.0868602C28.8119 0.0289534 29.4947 0 30.1859 0C39.7392 0 48.0851 5.6211 52.5463 13.9741C52.7212 14.303 52.4818 14.7001 52.1092 14.7001Z" fill="#03AFF9"/>
<path d="M56 27.9462C56 43.3825 44.4419 55.8945 30.1859 55.8945C29.4947 55.8945 28.8119 55.8656 28.1353 55.8077C27.8813 55.7849 27.6877 55.5719 27.6877 55.3175V46.0173C27.7689 46.0214 27.8522 46.0214 27.9355 46.0214C36.9621 46.0214 44.315 38.264 44.6189 28.5687C44.6272 28.2999 44.8437 28.0869 45.1144 28.0869H53.2104C53.4831 28.0869 53.7059 27.8656 53.7059 27.5947V19.2271C53.7059 18.6625 54.5095 18.5426 54.676 19.0824C55.5358 21.8681 56.0021 24.8462 56.0021 27.9462H56Z" fill="#03AFF9"/>
</g>
<defs>
<clipPath id="clip0_18_34">
<rect width="56" height="56" fill="white"/>
</clipPath>
</defs>
</svg>
